<?xml version='1.0' encoding='utf-8'?>
<svg xmlns="http://www.w3.org/2000/svg" width="1920" height="1080" version="1.1" viewBox="0 0 508 285.75"> <g transform="translate(0 -11.25)"> <g transform="translate(2018.1 -6721.4)"> <g transform="translate(-1899 5213.2)" clip-rule="nonzero" fill-rule="nonzero" shape-rendering="auto"> <rect x="-119.06" y="1519.4" width="508" height="285.75" color="#000000" color-rendering="auto" enable-background="accumulate" fill="#1a1c2b" image-rendering="auto" solid-color="#000000" stroke="#0a0b15" stroke-linecap="round" stroke-linejoin="round" stroke-width=".079375" style="isolation:auto;mix-blend-mode:normal"/> <rect x="-119.06" y="1519.4" width="508" height="285.75" color="#000000" color-rendering="auto" enable-background="accumulate" fill="#1a1c2b" image-rendering="auto" solid-color="#000000" style="isolation:auto;mix-blend-mode:normal"/> <path d="m-119.06 1519.4v285.75l508-285.75z" color="#000000" color-rendering="auto" enable-background="accumulate" fill="#0a0b15" image-rendering="auto" opacity=".684" solid-color="#000000" style="isolation:auto;mix-blend-mode:normal"/> <path d="m-119.06 1519.4v285.75l508-285.75z" color="#000000" color-rendering="auto" enable-background="accumulate" fill="#0a0b15" image-rendering="auto" opacity=".684" solid-color="#000000" style="isolation:auto;mix-blend-mode:normal"/> </g> <path d="m-1801.1 6807.7a1.6501 1.6501 0 0 0-1.6484 1.65v132.29a1.6501 1.6501 0 0 0 1.6484 1.6507h74.084a1.6501 1.6501 0 0 0 1.6505-1.6507v-132.29a1.6501 1.6501 0 0 0-1.6505-1.65zm1.6501 3.3007h70.783v128.99h-70.783z" clip-rule="nonzero" color="#000000" color-rendering="auto" dominant-baseline="auto" enable-background="accumulate" fill="#59f" fill-rule="evenodd" image-rendering="auto" shape-rendering="auto" solid-color="#000000" style="font-feature-settings:normal;font-variant-alternates:normal;font-variant-caps:normal;font-variant-ligatures:normal;font-variant-numeric:normal;font-variant-position:normal;isolation:auto;mix-blend-mode:normal;shape-padding:0;text-decoration-color:#000000;text-decoration-line:none;text-decoration-style:solid;text-indent:0;text-orientation:mixed;text-transform:none;white-space:normal"/> <path d="m-1795.8 6925.7v-100.54h63.5v100.54z" fill="none" stroke="#59f" stroke-linejoin="round" stroke-width="1.3229"/> <path d="m-1802.2 6942.7 0.03 0.03a1.6501 1.6501 0 0 1-0.029-0.031z" fill-rule="evenodd" opacity=".1"/> <g transform="matrix(.26962 0 0 .26962 -1805.9 6809)" fill="#393366" fill-rule="evenodd" stroke="#59f" stroke-linecap="round"> <g transform="matrix(1.3114 0 0 1.3114 -64.448 -158.94)" stroke-linejoin="round" stroke-width="10.088"> <path d="m105.66 309 28.908-23.257"/> <path d="m105.66 309 28.908 23.257"/> </g> <g transform="matrix(-1.3114 0 0 1.3114 375.48 -158.94)" stroke-linejoin="round" stroke-width="10.088"> <path d="m105.66 309 28.908-23.257"/> <path d="m105.66 309 28.908 23.257"/> </g> <path d="m142.94 299.12 25.156-105.67" stroke-width="13.986"/> </g> </g> </g> </svg>